<?xml version="1.0" encoding="utf-8"?>
<!-- Generator: Adobe Illustrator 19.2.1, SVG Export Plug-In . SVG Version: 6.00 Build 0)  -->
<svg version="1.1" id="Layer_1" xmlns="http://www.w3.org/2000/svg" xmlns:xlink="http://www.w3.org/1999/xlink" x="0px" y="0px"
	 viewBox="0 0 1000 1000" style="enable-background:new 0 0 1000 1000;" xml:space="preserve">
<style type="text/css">
	.st0{fill:none;}
	.st1{enable-background:new    ;}
</style>
<g>
	<g transform="translate(0.000000,511.000000) scale(0.100000,-0.100000)">
		<path d="M9361,4994.2c-64.7-7.5-333.2-30.1-597.8-51.2s-797.7-64.8-1185.8-98c-388.1-33.1-1372-114.6-2185.4-180.8
			S3604.5,4515,3226.2,4481.8c-1571.9-137.1-2585.2-223-2845.9-241.1c-154.8-10.5-280.3-22.6-280.3-27.1
			c3.9-66.3,135.2-880.1,143.1-886.1c9.8-7.5,1503.3,116,1521,125.1c3.9,3-90.2,119-209.7,257.7c-145,168.8-207.8,254.7-190.1,257.7
			c15.7,3,205.8,19.6,423.4,39.2l395.9,33.1l223.4-262.2c221.5-262.2,223.4-262.2,286.2-254.7c35.3,6.1,256.8,24.1,493.9,42.2
			c237.2,18.1,437.1,37.7,444.9,42.2c7.8,6-78.4,119-190.1,253.2c-113.7,134.1-205.8,248.7-205.8,256.2
			c0,15.1,793.8,85.9,819.3,73.8c9.8-4.5,117.6-120.6,237.2-257.7c166.6-188.4,229.3-248.7,260.7-248.7c52.9,0,982,90.4,989.8,96.4
			c3.9,1.5-90.2,114.6-209.7,250.2c-117.6,135.6-213.7,248.7-209.7,250.2c5.9,4.5,758.5,66.3,813.4,66.3c33.3,0,88.2-52.7,241.1-229
			c109.8-126.6,211.7-241.1,225.4-254.7c25.5-21.1,74.5-19.6,521.4,21.1c272.4,24.1,497.8,45.2,501.7,48.2
			c3.9,3-90.1,117.6-209.7,254.7c-201.9,232-213.6,250.2-174.4,256.2c25.5,4.5,186.2,18.1,358.7,31.7
			c172.5,13.5,345,27.1,382.2,31.7l68.6,7.5l225.4-256.2c123.5-141.6,235.2-257.7,245-257.7c51,0,1424.9,119,1432.8,125.1
			c5.9,3-3.9,93.4-21.6,200.4c-15.7,107-43.1,292.3-58.8,412.9s-33.3,230.6-41.2,245.7C9619.7,5013.8,9557,5015.3,9361,4994.2z"/>
		<path d="M237.2-1730.6v-2986.3l45.1-35l45.1-36.6h4735.4h4733.4l52.9,35l51,33.3v2987.9V1254h-642.9h-642.9l-194.1-316.3
			l-196-316.3h-437.1H7350l66.6,104.9c158.8,244.7,307.7,492.8,307.7,509.4c0,13.3-150.9,18.3-511.6,14.9l-511.6-5l-192.1-308
			l-194-308l-433.2-5l-435.1-3.3l100,158.1c54.9,86.5,145,229.7,199.9,316.3l100,158.1h-539h-541l-192.1-316.3l-192.1-316.3h-437.1
			h-437.1l141.1,229.7c76.4,124.8,160.7,259.7,186.2,297.9c25.5,38.3,47,76.5,47,86.5c0,13.3-152.9,18.3-513.5,14.9l-511.6-5
			l-196-311.3l-194-313h-431.2H1607l160.7,263c88.2,143.2,172.5,276.4,188.2,294.6c60.8,76.6,76.4,74.9-846.7,74.9h-872
			C237.2,1253.4,237.2-1730.6,237.2-1730.6z M9586.4-2100.1v-2422.1H5068.6H550.8v2422.1v2422h4517.8h4517.8L9586.4-2100.1
			L9586.4-2100.1z"/>
		<path d="M1593.5-300.5c-58.8-25.5-107.8-139.2-84.3-199.9c9.8-25.5,37.2-62.7,60.8-84.3c41.2-37.2,74.5-39.2,1031-45.1l987.8-5.9
			l-3.9-670.3l-5.9-670.3l-991.8-5.9l-991.8-3.9l-45.1-49c-66.6-72.5-64.7-176.4,7.8-237.1l52.9-47.1h990h987.8v-676.2v-676.2
			h-970.2c-1068.2,0-1062.3,0-1103.5-117.6c-29.4-80.4,3.9-168.6,76.4-205.8c84.3-45.1,6869.8-45.1,6954.1,0
			c72.5,37.2,105.8,125.4,76.4,205.8c-43.1,123.5,92.1,117.6-2416.7,117.6H3922v676.2v676.2h2303h2305l47.1,49
			c74.5,72.5,72.5,172.5-2,241.1l-49,43.1H6223H3922v676.2v676.2l2301,3.9c2269.7,5.9,2301,5.9,2344.1,45.1
			c62.7,56.9,80.4,115.7,56.8,186.2c-45.1,125.4,205.8,117.6-3559.4,115.6C3026.3-282.9,1621-290.7,1593.5-300.5z"/>
	</g>
</g>
<rect x="38.1" y="192.5" class="st0" width="929.7" height="177.7"/>
<g class="st1">
	<path d="M136.3,220.4h23.5c12.7,0,21.9,1.2,27.5,3.5c5.6,2.3,10,6.1,13.3,11.4c3.2,5.2,4.9,11.5,4.9,18.9c0,8.1-2.1,14.9-6.4,20.3
		c-4.2,5.4-10,9.1-17.3,11.2c-4.3,1.2-12.1,1.8-23.3,1.8v49.3h-22.1V220.4z M158.4,265.9h7c5.5,0,9.4-0.4,11.5-1.2
		c2.2-0.8,3.9-2.1,5.1-3.9c1.2-1.8,1.9-4,1.9-6.6c0-4.5-1.7-7.8-5.2-9.8c-2.5-1.5-7.2-2.3-14.1-2.3h-6.2V265.9z"/>
	<path d="M321.9,217.5c16.5,0,30.6,6,42.5,17.9c11.8,11.9,17.8,26.4,17.8,43.6c0,17-5.8,31.4-17.5,43.1
		c-11.7,11.8-25.9,17.6-42.5,17.6c-17.5,0-32-6-43.5-18.1c-11.6-12.1-17.3-26.4-17.3-43c0-11.1,2.7-21.4,8.1-30.7
		s12.8-16.7,22.2-22.2C300.9,220.2,311,217.5,321.9,217.5z M321.6,239.1c-10.8,0-19.8,3.7-27.2,11.2c-7.3,7.5-11,17-11,28.6
		c0,12.9,4.6,23,13.9,30.5c7.2,5.9,15.4,8.8,24.7,8.8c10.5,0,19.5-3.8,26.8-11.4c7.4-7.6,11.1-17,11.1-28.1
		c0-11.1-3.7-20.4-11.2-28.1C341.4,243,332.3,239.1,321.6,239.1z"/>
	<path d="M503.9,236.2l-16.4,14.5c-5.8-8-11.6-12-17.6-12c-2.9,0-5.3,0.8-7.1,2.3c-1.8,1.6-2.8,3.3-2.8,5.3c0,2,0.7,3.8,2,5.5
		c1.8,2.3,7.2,7.3,16.2,15c8.5,7.1,13.6,11.5,15.4,13.4c4.5,4.5,7.7,8.9,9.5,13c1.9,4.1,2.8,8.7,2.8,13.6c0,9.5-3.3,17.4-9.9,23.7
		c-6.6,6.2-15.2,9.3-25.8,9.3c-8.3,0-15.5-2-21.7-6.1s-11.4-10.4-15.8-19.1l18.6-11.2c5.6,10.3,12,15.4,19.3,15.4
		c3.8,0,7-1.1,9.6-3.3c2.6-2.2,3.9-4.8,3.9-7.7c0-2.6-1-5.3-2.9-7.9c-2-2.6-6.3-6.7-12.9-12.1c-12.7-10.3-20.9-18.3-24.6-23.9
		s-5.5-11.2-5.5-16.8c0-8.1,3.1-15,9.2-20.8c6.2-5.8,13.7-8.7,22.8-8.7c5.8,0,11.3,1.3,16.6,4S497.8,229.1,503.9,236.2z"/>
	<path d="M555.5,220.4h64.3v21.8h-21.2v94.5h-22.5v-94.5h-20.6V220.4z"/>
	<path d="M674.9,220.4h63.5v21.7h-41.5v21h41.5v21.3h-41.5V315h41.5v21.8h-63.5V220.4z"/>
	<path d="M800.4,220.4h23.5c12.9,0,22,1.1,27.5,3.4c5.5,2.3,9.8,6.1,13.2,11.4c3.3,5.3,5,11.6,5,18.9c0,7.6-1.8,14-5.5,19.2
		c-3.7,5.1-9.2,9-16.6,11.7l27.6,51.7h-24.2l-26.2-49.3h-2v49.3h-22.1V220.4z M822.6,265.9h6.9c7,0,11.9-0.9,14.5-2.8
		c2.7-1.9,4-4.9,4-9.2c0-2.5-0.7-4.7-2-6.6c-1.3-1.9-3.1-3.2-5.3-4c-2.2-0.8-6.3-1.2-12.1-1.2h-6.1V265.9z"/>
</g>
</svg>
