<svg id="Layer_1" data-name="Layer 1" xmlns="http://www.w3.org/2000/svg" viewBox="0 0 96.65 98.92"><title>logo</title><path d="M45.1,0.4H41.9c-1.1.1-2.3,0.3-3.4,0.4C18.3,3.2,2.3,20.1,1.3,39.9c-1,21.4,12.8,39.9,33.4,44,10.7,2.2,21.1,1.1,30.6-4.8a0.55,0.55,0,0,1,.4,0,1.42,1.42,0,0,1,.2.4c2.8,13.6,14,20.2,27.1,19.8a5,5,0,0,0,4.9-4.9,5.19,5.19,0,0,0-4.5-5.3,13.42,13.42,0,0,0-2.1-.1c-11.9-.5-18.7-12.7-12.5-22.8A48.48,48.48,0,0,0,83.9,54c7-24.2-9-48.5-33.1-52.8A55.8,55.8,0,0,0,45.1.4Zm-15,42.3a9.25,9.25,0,1,1-9.3-9.2A9.26,9.26,0,0,1,30.1,42.7ZM43.4,10.8a9.25,9.25,0,1,1-9.2,9.3A9.26,9.26,0,0,1,43.4,10.8Zm9.3,54.5a9.3,9.3,0,1,1-18.6,0A9.2,9.2,0,0,1,43.3,56,9.37,9.37,0,0,1,52.7,65.3ZM75.3,42.7a9.25,9.25,0,1,1-9.2-9.3A9.35,9.35,0,0,1,75.3,42.7Zm-26.7.1a5.15,5.15,0,1,1-10.3-.1,5.14,5.14,0,0,1,5.2-5.1A5.21,5.21,0,0,1,48.6,42.8Z" transform="translate(-1.25 -0.4)"/></svg>